# xmcd
#
# Track frame offsets:
#	150
#	21254
#	45647
#	61608
#	95286
#	108649
#	130258
#	159632
#	174705
#	212648
#	231203
#
# Disc length: 3309 seconds
#
# Revision: 4
# Processed by: cddbd v1.5.2PL0 Copyright (c) Steve Scherf et al.
# Submitted via: EasyCDDAExtractor 15.3.0.1
#
DISCID=900ceb0b
DTITLE=Joe Beard with Ronnie Earl and The Broadcasters - Blues Union
DYEAR=1996
DGENRE=Blues
TTITLE0=Lay for Me Sometime
TTITLE1=Just to be with You
TTITLE2=I Count the Days You're Gone
TTITLE3=Sinners Prayer
TTITLE4=Sally Mae
TTITLE5=Please Don't Light the Flame
TTITLE6=Feets Out in the Hall
TTITLE7=Think
TTITLE8=Telling It like It Is
TTITLE9=Don't Know Why
TTITLE10=Late in the Evening
EXTD=YEAR: 1996
EXTT0=
EXTT1=
EXTT2=
EXTT3=
EXTT4=
EXTT5=
EXTT6=
EXTT7=
EXTT8=
EXTT9=
EXTT10=
PLAYORDER=
